<?xml version="1.0" standalone="no"?>
<!DOCTYPE svg PUBLIC "-//W3C//DTD SVG 20010904//EN"
 "http://www.w3.org/TR/2001/REC-SVG-20010904/DTD/svg10.dtd">
<svg version="1.0" xmlns="http://www.w3.org/2000/svg"
 width="520.000000pt" height="520.000000pt" viewBox="0 0 520.000000 520.000000"
 preserveAspectRatio="xMidYMid meet">
<metadata>
Created by potrace 1.11, written by Peter Selinger 2001-2013
</metadata>
<g transform="translate(0.000000,520.000000) scale(0.100000,-0.100000)"
fill="#000000" stroke="none">
<path d="M2677 1963 c-11 -11 -8 -20 7 -20 8 0 12 6 9 14 -6 15 -7 15 -16 6z"/>
<path d="M3315 1850 c-3 -5 -1 -10 4 -10 6 0 11 5 11 10 0 6 -2 10 -4 10 -3 0
-8 -4 -11 -10z"/>
<path d="M2190 1840 c0 -5 5 -10 10 -10 6 0 10 5 10 10 0 6 -4 10 -10 10 -5 0
-10 -4 -10 -10z"/>
<path d="M2346 1842 c-3 -5 1 -9 9 -9 8 0 12 4 9 9 -3 4 -7 8 -9 8 -2 0 -6 -4
-9 -8z"/>
<path d="M2560 1840 c0 -5 5 -10 10 -10 6 0 10 5 10 10 0 6 -4 10 -10 10 -5 0
-10 -4 -10 -10z"/>
<path d="M2765 1840 c3 -5 8 -10 11 -10 2 0 4 5 4 10 0 6 -5 10 -11 10 -5 0
-7 -4 -4 -10z"/>
<path d="M2844 1838 c10 -6 22 -6 26 -2 5 5 -3 10 -18 11 -22 1 -24 0 -8 -9z"/>
<path d="M2980 1821 c0 -13 40 -55 46 -49 3 3 -6 17 -20 31 -14 15 -26 22 -26
18z"/>
<path d="M3125 1810 c2 -27 10 -33 12 -10 1 11 -2 22 -6 24 -4 3 -7 -4 -6 -14z"/>
<path d="M2201 1811 c-9 -6 -6 -8 13 -8 14 0 23 3 20 8 -7 11 -15 11 -33 0z"/>
<path d="M2325 1810 c-3 -5 -1 -10 4 -10 6 0 11 5 11 10 0 6 -2 10 -4 10 -3 0
-8 -4 -11 -10z"/>
<path d="M2495 1804 c4 -14 0 -24 -10 -28 -8 -3 -15 -2 -15 2 0 4 -11 9 -25
10 -14 1 -25 -3 -25 -8 0 -6 8 -10 18 -10 14 0 15 -2 2 -10 -8 -6 -39 -7 -67
-4 -41 4 -53 3 -53 -8 0 -10 -3 -9 -11 2 -8 11 -12 12 -16 3 -2 -7 -13 -13
-24 -13 -10 0 -19 -7 -19 -15 0 -8 -8 -15 -17 -15 -17 -1 -17 -2 0 -14 17 -13
17 -16 3 -43 l-16 -28 6 28 c5 21 2 27 -10 27 -9 0 -16 -5 -16 -12 0 -9 -3 -9
-12 0 -18 18 -30 14 -23 -7 5 -16 1 -18 -25 -15 -16 2 -30 -1 -30 -6 0 -6 5
-10 11 -10 5 0 7 -5 3 -11 -4 -7 -10 -7 -16 -1 -15 15 -42 3 -62 -26 -10 -15
-15 -19 -12 -9 3 9 1 17 -4 17 -5 0 -8 6 -6 13 1 6 1 9 -1 5 -2 -4 -11 -4 -19
-1 -8 3 -14 0 -14 -6 0 -6 5 -11 10 -11 6 0 10 -4 10 -10 0 -6 -32 -10 -77 -9
-43 0 -72 3 -65 6 26 10 10 20 -34 20 -32 0 -44 -3 -40 -12 2 -7 -4 -15 -15
-18 -16 -4 -19 -2 -14 14 4 10 1 27 -5 36 -10 16 -10 15 -5 -4 5 -17 2 -23 -9
-23 -9 0 -15 3 -15 8 3 19 -2 25 -11 12 -9 -13 -11 -13 -20 0 -8 13 -10 13
-10 -2 0 -11 -7 -17 -17 -16 -39 3 -53 -3 -53 -21 0 -11 -6 -22 -12 -25 -7 -3
17 -4 53 -2 36 1 71 6 77 10 7 4 12 1 12 -8 0 -16 -18 -20 -83 -19 -23 1 -26
-2 -16 -13 7 -9 7 -14 1 -14 -5 0 -12 7 -16 15 -3 8 -13 15 -23 14 -11 0 -13
-3 -5 -6 20 -8 13 -31 -10 -32 -13 0 -32 -1 -43 -2 -11 0 -32 1 -47 4 -19 3
-28 0 -28 -9 0 -8 -6 -14 -12 -14 -9 0 -8 -4 2 -10 13 -8 12 -10 -4 -10 -12 0
-16 -5 -12 -16 3 -8 2 -13 -3 -10 -5 3 -11 17 -13 31 -4 18 -1 25 11 25 14 0
14 2 1 10 -20 13 -70 13 -70 0 0 -5 8 -10 18 -11 14 0 14 -2 -3 -8 -29 -12
-38 -3 -31 33 5 29 5 30 -9 12 -8 -11 -29 -21 -47 -23 -44 -5 -48 -13 -7 -14
33 0 33 -1 9 -11 l-25 -10 23 -9 c12 -4 22 -14 22 -21 0 -10 -3 -9 -9 1 -5 8
-16 11 -25 8 -11 -5 -16 -1 -16 13 0 11 -5 20 -11 20 -5 0 -7 -4 -4 -10 3 -5
0 -7 -9 -4 -8 3 -12 13 -10 22 5 15 4 14 -6 -1 -6 -9 -8 -22 -4 -28 5 -8 1 -8
-14 0 -28 15 -79 14 -85 -1 -3 -9 -11 -4 -26 12 l-21 25 10 -29 c9 -24 8 -32
-5 -43 -8 -7 -10 -8 -5 -1 14 17 12 31 -4 25 -7 -3 -19 0 -25 6 -9 9 -14 8
-22 -3 -8 -11 -12 -12 -16 -2 -2 6 -10 12 -16 12 -8 0 -7 -4 1 -12 17 -17 15
-31 -2 -25 -8 3 -17 1 -20 -6 -3 -9 -5 -9 -5 0 -1 7 -8 10 -16 7 -25 -10 -68
5 -61 21 6 18 -28 29 -70 22 -22 -3 -19 -4 13 -6 40 -1 42 -3 49 -36 4 -22 10
-32 18 -28 6 4 5 -1 -3 -11 -11 -13 -16 -14 -23 -4 -8 10 -11 10 -15 0 -2 -6
-9 -9 -15 -6 -6 4 -14 0 -19 -7 -7 -11 -9 -10 -9 5 0 16 -2 17 -17 5 -15 -12
-16 -12 -9 6 5 15 4 17 -5 8 -14 -14 -42 -6 -32 10 3 6 1 7 -5 3 -7 -4 -12
-15 -12 -24 0 -11 -3 -13 -8 -6 -11 18 -43 -18 -32 -36 8 -13 12 -12 24 5 9
11 16 15 16 9 0 -6 -9 -19 -20 -29 -11 -10 -20 -13 -20 -7 0 13 -28 42 -41 42
-5 0 -6 -12 -3 -27 7 -27 6 -28 -13 -10 -11 9 -26 17 -33 17 -11 0 -11 3 -2
12 7 7 12 16 12 21 0 5 -7 1 -16 -7 -8 -9 -13 -20 -10 -25 3 -5 -1 -14 -8 -20
-10 -8 -16 -9 -21 -1 -3 5 -12 10 -18 10 -9 0 -9 -2 0 -8 8 -5 9 -13 3 -22
-15 -23 -12 -40 8 -40 14 0 15 -2 2 -10 -10 -6 -17 -5 -23 5 -4 8 -15 15 -23
15 -8 0 -12 -5 -9 -10 9 -15 -2 -12 -19 6 -19 18 -36 10 -36 -17 0 -10 -5 -19
-11 -19 -6 0 -8 8 -5 18 6 16 5 16 -7 0 -13 -16 -15 -16 -30 0 -16 15 -17 15
-17 -3 0 -10 3 -16 6 -12 4 3 13 -1 21 -9 14 -13 13 -17 -3 -29 -11 -8 -27
-13 -37 -11 -13 3 -17 0 -13 -10 7 -18 -15 -18 -40 1 -16 13 -16 14 -2 9 22
-7 23 2 4 22 -17 16 -30 19 -21 3 7 -11 -31 -49 -48 -49 -6 0 -7 -3 -4 -6 4
-4 17 0 31 9 22 15 25 15 42 -4 18 -20 18 -20 -11 -17 -20 2 -29 -1 -27 -9 2
-13 -1 -15 -40 -17 -12 0 -23 -6 -25 -13 -3 -7 3 -10 15 -6 18 4 40 -23 27
-35 -3 -3 -5 0 -5 6 0 7 -15 12 -36 12 -19 0 -33 -4 -30 -9 3 -5 -5 -20 -19
-35 -14 -15 -24 -30 -23 -34 1 -4 -2 -22 -6 -40 -8 -32 -42 -52 -65 -38 -5 4
-12 2 -16 -4 -9 -15 -25 -2 -18 15 4 11 1 13 -11 9 -17 -7 -22 -34 -6 -34 6 0
10 -4 10 -10 0 -5 -6 -7 -14 -4 -8 3 -17 1 -21 -5 -3 -6 2 -11 12 -11 16 -1
17 -2 2 -13 -13 -10 -17 -32 -17 -105 -1 -69 2 -91 11 -85 9 5 9 3 0 -8 -9
-11 -12 -103 -13 -342 l0 -327 2600 0 2600 0 0 464 c0 362 -3 465 -12 469 -10
4 -10 8 -2 14 7 4 11 27 11 50 -1 35 -5 43 -24 48 -13 3 -23 10 -23 16 0 6 5
7 12 3 7 -4 8 -3 4 4 -4 7 -14 12 -21 12 -9 0 -12 6 -8 16 5 13 2 15 -16 9
-20 -6 -22 -4 -16 14 4 12 2 21 -4 21 -6 0 -11 -4 -11 -10 0 -15 -26 -12 -40
5 -10 12 -10 18 -1 29 16 19 53 17 46 -3 -4 -11 -3 -12 10 -1 20 17 4 36 -36
45 -16 4 -31 11 -35 16 -3 6 5 7 20 3 30 -7 31 -5 13 27 -13 25 -37 37 -37 19
0 -5 5 -10 10 -10 6 0 10 -5 10 -10 0 -7 -6 -7 -19 -1 -10 6 -21 7 -25 3 -8
-7 -26 16 -26 33 0 6 5 3 10 -5 9 -13 11 -13 19 0 6 9 6 19 0 27 -6 7 -8 16
-5 22 3 5 -3 7 -14 4 -11 -3 -20 0 -20 6 0 7 -11 9 -27 7 l-28 -5 25 19 25 20
-24 0 c-20 0 -22 2 -11 15 7 9 10 18 8 21 -3 3 -15 -6 -26 -20 -11 -15 -23
-26 -27 -26 -4 0 -2 6 4 14 9 10 9 16 1 21 -8 5 -6 13 5 25 12 14 13 20 4 26
-7 4 -10 3 -6 -3 4 -6 0 -14 -9 -17 -10 -4 -13 -13 -9 -26 4 -11 2 -20 -4 -20
-11 0 -15 19 -13 53 1 9 -5 17 -12 17 -8 0 -16 3 -19 8 -2 4 -2 2 -1 -5 2 -6
-4 -14 -12 -17 -22 -8 -26 -7 -19 4 3 6 0 10 -8 10 -8 0 -20 6 -26 14 -7 8
-22 12 -34 10 -12 -2 -16 -2 -9 2 17 8 15 24 -3 24 -8 0 -15 -4 -15 -10 0 -5
-7 -10 -16 -10 -9 0 -12 -5 -8 -12 4 -7 3 -8 -4 -4 -12 7 -2 39 15 48 5 3 1 3
-7 0 -38 -11 -59 -10 -53 4 3 9 20 14 48 14 45 0 55 10 55 53 -1 20 -2 20 -11
4 -5 -9 -7 -22 -4 -27 3 -6 0 -10 -8 -10 -8 0 -17 7 -21 15 -6 17 -26 20 -26
4 0 -5 5 -7 10 -4 6 3 10 1 10 -4 0 -6 -9 -11 -21 -11 -11 0 -18 4 -14 9 3 5
1 12 -5 16 -6 4 -8 11 -5 16 4 5 2 9 -4 9 -5 0 -13 -4 -16 -10 -3 -5 -1 -10 6
-10 10 0 10 -3 1 -12 -10 -10 -16 -7 -30 12 -9 14 -16 29 -14 34 2 5 -4 6 -13
3 -8 -4 -15 -2 -15 3 0 6 -5 10 -10 10 -6 0 -5 -8 2 -20 7 -11 19 -20 26 -20
8 0 11 -10 7 -30 -6 -32 10 -41 33 -18 9 9 12 8 12 -4 0 -21 -22 -38 -54 -40
-14 -1 -26 -6 -26 -10 0 -4 -5 -8 -10 -8 -6 0 -9 6 -8 13 2 7 -10 13 -29 15
-18 2 -33 8 -33 14 0 7 18 9 51 5 29 -4 49 -4 45 0 -3 3 -1 12 5 20 9 10 8 13
0 13 -7 0 -9 5 -6 10 9 14 -19 12 -34 -2 -10 -11 -11 -10 -6 5 5 11 2 17 -8
17 -9 0 -18 -9 -22 -19 -6 -19 -45 -37 -45 -20 0 5 5 9 10 9 6 0 10 5 10 10 0
6 -11 10 -25 10 -14 0 -25 -4 -25 -10 0 -5 5 -10 11 -10 5 0 8 -4 5 -9 -3 -5
-16 -7 -28 -3 -12 3 -17 7 -10 10 16 5 15 32 -1 32 -14 0 -49 33 -45 41 2 2
-2 -1 -8 -8 -6 -7 -15 -9 -19 -5 -5 4 -5 1 -1 -6 4 -7 12 -9 18 -6 7 4 8 2 4
-4 -4 -7 -2 -12 3 -12 6 0 11 -5 11 -11 0 -6 -16 1 -35 15 -24 18 -42 25 -55
21 -30 -10 -24 -23 13 -28 31 -4 31 -4 -6 -5 -34 -2 -38 0 -35 20 2 11 -2 23
-8 25 -14 5 -52 -29 -47 -42 2 -6 -6 -11 -17 -11 -25 0 -25 4 3 27 24 20 25
20 -58 23 -37 1 -49 5 -47 15 3 12 1 12 -14 0 -12 -9 -15 -9 -10 -1 5 8 0 12
-14 12 -12 0 -18 -4 -15 -10 3 -5 2 -10 -4 -10 -5 0 -11 4 -13 9 -1 5 -30 11
-64 13 -51 2 -60 5 -57 19 3 9 0 20 -6 23 -7 4 -8 1 -5 -8 7 -18 -21 -23 -31
-6 -5 8 -11 7 -21 -1 -11 -9 -17 -9 -29 1 -8 7 -15 8 -15 3 0 -5 -9 -9 -20 -9
-11 0 -20 4 -20 8 0 5 -22 7 -50 6 -32 -2 -50 -8 -50 -15 0 -7 -5 -13 -11 -13
-6 0 -8 8 -4 19 4 15 0 19 -20 19 -14 0 -25 -4 -25 -9 0 -5 -5 -9 -11 -9 -6 0
-8 9 -4 20 4 11 2 20 -4 20 -6 0 -11 -3 -11 -8 0 -4 -14 -13 -32 -21 -24 -11
-33 -11 -36 -3 -2 7 -11 12 -20 12 -14 0 -14 2 -3 9 9 6 3 8 -18 6 -17 -1 -38
-11 -46 -21 -11 -14 -14 -15 -15 -5 0 11 -4 10 -16 -5 -15 -19 -15 -18 -9 3 3
12 1 24 -5 28 -6 3 -10 -3 -10 -15 0 -12 -4 -19 -9 -16 -5 4 -12 0 -14 -6 -3
-8 -6 -6 -6 5 -1 18 -31 25 -31 7 0 -5 -7 -10 -15 -10 -8 0 -15 5 -15 10 0 6
-11 10 -24 10 -26 0 -44 29 -25 41 6 4 -3 6 -20 5 -36 -1 -40 -11 -8 -20 21
-7 21 -7 2 -15 -21 -9 -44 -1 -69 25 -9 8 -16 11 -16 5 0 -5 7 -17 16 -25 14
-15 14 -16 0 -16 -9 0 -16 4 -16 8 0 4 -16 6 -35 4 -20 -2 -42 1 -51 9 -13 10
-17 10 -24 -1 -5 -8 -12 -11 -16 -8 -3 4 3 19 15 34 12 15 19 30 15 33 -3 3
-14 -4 -23 -16 -14 -16 -21 -19 -30 -10 -8 8 -14 8 -23 -1 -8 -8 -17 -8 -30
-1 -16 9 -17 13 -6 27 12 16 11 16 -7 1 -27 -22 -75 -30 -75 -13 0 7 -6 11
-14 8 -8 -3 -16 2 -19 13 -4 16 -6 16 -12 -4 -10 -31 -32 -36 -39 -8 -7 26
-36 41 -46 24 -6 -8 -9 -7 -13 2 -5 12 -7 12 -15 0 -8 -11 -11 -11 -16 0 -3 8
-3 4 0 -8 5 -20 3 -21 -26 -10 -16 6 -30 15 -30 19 0 4 -5 8 -11 8 -6 0 -9 -7
-6 -14 4 -11 1 -13 -11 -9 -9 4 -21 11 -25 17 -5 6 -6 2 -2 -10z m150 -24 c3
-5 -1 -10 -9 -10 -9 0 -16 5 -16 10 0 6 4 10 9 10 6 0 13 -4 16 -10z m261 -60
c1 -14 -1 -19 -3 -12 -3 6 -11 12 -18 12 -7 0 -15 6 -18 13 -3 7 4 12 17 12
16 0 21 -7 22 -25z m-536 0 c0 -5 -17 -9 -37 -9 -38 1 -38 1 -8 9 43 11 45 11
45 0z m750 -20 c0 -5 -5 -10 -11 -10 -5 0 -7 5 -4 10 3 6 8 10 11 10 2 0 4 -4
4 -10z m40 0 c0 -5 -4 -10 -10 -10 -5 0 -10 5 -10 10 0 6 5 10 10 10 6 0 10
-4 10 -10z m260 4 c0 -10 -27 -33 -33 -28 -9 10 4 34 19 34 8 0 14 -3 14 -6z
m-1123 -26 c-3 -8 -6 -5 -6 6 -1 11 2 17 5 13 3 -3 4 -12 1 -19z m67 -14 c3
-8 2 -12 -4 -9 -6 3 -10 10 -10 16 0 14 7 11 14 -7z m851 -3 c-3 -6 -11 -11
-16 -11 -5 0 -4 6 3 14 14 16 24 13 13 -3z m262 3 c-3 -3 -12 -4 -19 -1 -8 3
-5 6 6 6 11 1 17 -2 13 -5z m-940 -10 c-3 -3 -12 -4 -19 -1 -8 3 -5 6 6 6 11
1 17 -2 13 -5z m-337 -14 c0 -5 -5 -10 -11 -10 -5 0 -7 5 -4 10 3 6 8 10 11
10 2 0 4 -4 4 -10z m1547 4 c-3 -3 -12 -4 -19 -1 -8 3 -5 6 6 6 11 1 17 -2 13
-5z m-202 -34 c3 -5 1 -10 -4 -10 -6 0 -11 5 -11 10 0 6 2 10 4 10 3 0 8 -4
11 -10z m-1835 -26 c0 -8 -4 -12 -10 -9 -5 3 -10 10 -10 16 0 5 5 9 10 9 6 0
10 -7 10 -16z m121 -36 c-15 -23 -21 -27 -19 -13 3 19 29 54 37 49 2 -2 -6
-18 -18 -36z m-181 22 c0 -5 -5 -10 -11 -10 -5 0 -7 5 -4 10 3 6 8 10 11 10 2
0 4 -4 4 -10z m160 -71 c13 -9 13 -10 0 -6 -8 2 -24 -3 -34 -12 -18 -15 -18
-15 -5 7 16 25 18 26 39 11z m110 -3 c0 -3 -4 -8 -10 -11 -5 -3 -10 -1 -10 4
0 6 5 11 10 11 6 0 10 -2 10 -4z m-495 -36 c3 -5 1 -10 -4 -10 -6 0 -11 5 -11
10 0 6 2 10 4 10 3 0 8 -4 11 -10z m-227 -21 c3 -11 2 -11 -7 1 -7 10 -11 11
-11 3 0 -7 -4 -13 -10 -13 -5 0 -7 7 -3 15 7 19 25 15 31 -6z m294 -11 c-7 -7
-12 -8 -12 -2 0 6 3 14 7 17 3 4 9 5 12 2 2 -3 -1 -11 -7 -17z m-245 6 c-3 -3
-12 -4 -19 -1 -8 3 -5 6 6 6 11 1 17 -2 13 -5z m16 -19 c-3 -9 -8 -14 -10 -11
-3 3 -2 9 2 15 9 16 15 13 8 -4z m3587 1 c0 -3 -4 -8 -10 -11 -5 -3 -10 -1
-10 4 0 6 5 11 10 11 6 0 10 -2 10 -4z m-3785 -27 c11 -17 -1 -21 -15 -4 -8 9
-8 15 -2 15 6 0 14 -5 17 -11z m-429 -75 c-3 -9 -6 -22 -6 -30 0 -12 -2 -12
-14 -2 -10 9 -11 15 -2 20 6 4 7 8 3 8 -12 0 2 20 15 20 5 0 7 -7 4 -16z
m4281 -6 c-3 -8 -6 -5 -6 6 -1 11 2 17 5 13 3 -3 4 -12 1 -19z m52 8 c7 -8 8
-17 3 -20 -6 -3 -12 3 -15 14 -6 24 -4 25 12 6z m-4299 -26 c0 -5 -7 -7 -15
-4 -8 4 -15 8 -15 10 0 2 7 4 15 4 8 0 15 -4 15 -10z m4285 -19 c-6 -5 -25 10
-25 20 0 5 6 4 14 -3 8 -7 12 -15 11 -17z m-4463 -26 c0 -5 -5 -11 -11 -13 -6
-2 -11 4 -11 13 0 9 5 15 11 13 6 -2 11 -8 11 -13z m4523 -24 c3 -5 1 -12 -5
-16 -5 -3 -10 1 -10 9 0 18 6 21 15 7z m-18 -37 c-3 -3 -12 -4 -19 -1 -8 3 -5
6 6 6 11 1 17 -2 13 -5z m-4666 -67 c-7 -7 -14 -8 -21 -1 -6 6 -2 10 12 11 16
2 18 -1 9 -10z m4789 -48 c0 -11 -27 -12 -34 -1 -2 4 4 9 15 9 10 1 19 -2 19
-8z m-4907 -24 c-3 -9 -8 -14 -10 -11 -3 3 -2 9 2 15 9 16 15 13 8 -4z m4927
-19 c0 -2 -7 -7 -16 -10 -8 -3 -12 -2 -9 4 6 10 25 14 25 6z m-4920 -28 c0 -5
-9 -4 -20 2 -11 6 -20 12 -20 14 0 2 9 2 20 -1 11 -3 20 -9 20 -15z m-40 -48
c0 -5 -5 -10 -11 -10 -5 0 -7 5 -4 10 3 6 8 10 11 10 2 0 4 -4 4 -10z m-30
-34 c0 -2 -9 -6 -20 -9 -11 -3 -18 -1 -14 4 5 9 34 13 34 5z m-57 -20 c4 -10
1 -13 -9 -9 -7 3 -14 -1 -14 -8 0 -7 -2 -10 -5 -7 -7 7 5 38 15 38 4 0 10 -7
13 -14z"/>
<path d="M2800 1811 c0 -10 19 -25 25 -20 1 2 -3 10 -11 17 -8 7 -14 8 -14 3z"/>
<path d="M3050 1806 c0 -2 7 -9 15 -16 13 -11 14 -10 9 4 -5 14 -24 23 -24 12z"/>
<path d="M2893 1793 c-15 -5 -17 -23 -4 -23 5 0 11 7 15 15 3 8 4 15 3 14 -1
0 -8 -3 -14 -6z"/>
<path d="M2390 1780 c0 -5 5 -10 10 -10 6 0 10 5 10 10 0 6 -4 10 -10 10 -5 0
-10 -4 -10 -10z"/>
<path d="M3230 1779 c0 -5 5 -7 10 -4 6 3 10 8 10 11 0 2 -4 4 -10 4 -5 0 -10
-5 -10 -11z"/>
<path d="M2132 1773 c-12 -2 -20 -8 -17 -12 6 -11 55 -1 55 10 0 5 -3 8 -7 8
-5 -1 -18 -4 -31 -6z"/>
<path d="M3333 1773 c-15 -5 -17 -23 -4 -23 5 0 11 7 15 15 3 8 4 15 3 14 -1
0 -8 -3 -14 -6z"/>
<path d="M2085 1760 c3 -5 8 -10 11 -10 2 0 4 5 4 10 0 6 -5 10 -11 10 -5 0
-7 -4 -4 -10z"/>
<path d="M3260 1760 c0 -5 5 -10 10 -10 6 0 10 5 10 10 0 6 -4 10 -10 10 -5 0
-10 -4 -10 -10z"/>
<path d="M3020 1750 c0 -5 5 -10 10 -10 6 0 10 5 10 10 0 6 -4 10 -10 10 -5 0
-10 -4 -10 -10z"/>
<path d="M3233 1723 c9 -9 20 -13 24 -9 4 4 1 11 -7 16 -25 16 -35 11 -17 -7z"/>
<path d="M3270 1730 c0 -5 5 -10 10 -10 6 0 10 5 10 10 0 6 -4 10 -10 10 -5 0
-10 -4 -10 -10z"/>
<path d="M3490 1729 c0 -5 -4 -7 -10 -4 -5 3 -10 2 -10 -3 0 -17 13 -21 26 -7
16 16 18 25 4 25 -5 0 -10 -5 -10 -11z"/>
<path d="M1967 1699 c7 -7 15 -10 18 -7 3 3 -2 9 -12 12 -14 6 -15 5 -6 -5z"/>
<path d="M2085 1700 c-3 -6 1 -7 9 -4 18 7 21 14 7 14 -6 0 -13 -4 -16 -10z"/>
<path d="M2160 1700 c20 -13 40 -13 40 0 0 6 -12 10 -27 10 -22 0 -25 -2 -13
-10z"/>
<path d="M2095 1679 c-4 -6 -5 -12 -2 -15 2 -3 7 2 10 11 7 17 1 20 -8 4z"/>
<path d="M2120 1670 c0 -5 5 -10 10 -10 6 0 10 5 10 10 0 6 -4 10 -10 10 -5 0
-10 -4 -10 -10z"/>
<path d="M1885 1651 c-3 -6 -1 -19 5 -28 9 -16 10 -15 5 5 -6 22 9 32 18 12 3
-6 4 -5 3 2 -3 16 -23 22 -31 9z"/>
<path d="M4587 1631 c5 -20 33 -19 33 2 0 6 -3 7 -7 4 -3 -4 -12 -2 -19 4 -9
8 -11 5 -7 -10z"/>
<path d="M1380 1630 c0 -5 5 -10 11 -10 5 0 7 5 4 10 -3 6 -8 10 -11 10 -2 0
-4 -4 -4 -10z"/>
<path d="M4406 1621 c-3 -5 1 -11 9 -15 8 -3 15 -1 15 4 0 13 -18 22 -24 11z"/>
<path d="M4656 1621 c-4 -7 -5 -15 -2 -18 9 -9 19 4 14 18 -4 11 -6 11 -12 0z"/>
<path d="M1585 1600 c-4 -6 -16 -8 -26 -5 -11 4 -26 1 -34 -5 -12 -10 -18 -10
-29 -1 -11 10 -17 7 -30 -10 -8 -13 -13 -25 -10 -28 3 -3 9 1 15 9 6 10 11 12
17 4 14 -21 75 -13 100 13 12 13 22 26 22 29 0 8 -19 4 -25 -6z m-25 -20 c0
-5 -7 -10 -16 -10 -8 0 -12 5 -9 10 3 6 10 10 16 10 5 0 9 -4 9 -10z"/>
<path d="M1940 1600 c0 -5 7 -10 15 -10 8 0 15 5 15 10 0 6 -7 10 -15 10 -8 0
-15 -4 -15 -10z"/>
<path d="M4750 1586 c0 -8 4 -17 9 -20 5 -4 7 3 4 14 -6 23 -13 26 -13 6z"/>
<path d="M1386 1571 c-13 -5 -16 -10 -9 -14 7 -4 14 -3 18 3 11 18 38 12 30
-7 -5 -14 -3 -15 6 -6 24 24 -5 40 -45 24z"/>
<path d="M4744 1540 c0 -13 4 -16 10 -10 7 7 7 13 0 20 -6 6 -10 3 -10 -10z"/>
<path d="M1482 1535 c8 -9 107 -11 101 -2 -2 4 -27 7 -55 7 -28 0 -49 -2 -46
-5z"/>
<path d="M4775 1510 c-19 -8 -19 -9 3 -9 12 -1 22 4 22 9 0 6 -1 10 -2 9 -2 0
-12 -4 -23 -9z"/>
<path d="M750 1432 c0 -5 7 -9 15 -9 8 0 12 4 9 9 -3 4 -9 8 -15 8 -5 0 -9 -4
-9 -8z"/>
<path d="M4985 1430 c-3 -6 1 -7 9 -4 18 7 21 14 7 14 -6 0 -13 -4 -16 -10z"/>
<path d="M680 1420 c0 -5 5 -10 11 -10 5 0 7 5 4 10 -3 6 -8 10 -11 10 -2 0
-4 -4 -4 -10z"/>
<path d="M810 1421 c0 -5 7 -11 15 -15 8 -3 15 -1 15 3 0 5 -7 11 -15 15 -8 3
-15 1 -15 -3z"/>
<path d="M580 1396 c0 -2 7 -7 16 -10 8 -3 12 -2 9 4 -6 10 -25 14 -25 6z"/>
<path d="M655 1380 c3 -5 8 -10 11 -10 2 0 4 5 4 10 0 6 -5 10 -11 10 -5 0 -7
-4 -4 -10z"/>
<path d="M345 1240 c-3 -5 1 -10 10 -10 9 0 13 5 10 10 -3 6 -8 10 -10 10 -2
0 -7 -4 -10 -10z"/>
<path d="M5087 1231 c-3 -14 0 -17 14 -14 13 4 19 0 19 -11 0 -9 5 -16 11 -16
5 0 2 13 -8 30 -20 35 -29 37 -36 11z"/>
<path d="M376 1205 c4 -8 10 -15 15 -15 4 0 6 7 3 15 -4 8 -10 15 -15 15 -4 0
-6 -7 -3 -15z"/>
<path d="M212 1145 c-18 -10 -20 -14 -8 -18 8 -3 20 1 27 9 16 20 9 23 -19 9z"/>
<path d="M180 1100 c0 -5 7 -7 15 -4 8 4 15 8 15 10 0 2 -7 4 -15 4 -8 0 -15
-4 -15 -10z"/>
<path d="M155 1059 c-4 -6 -5 -12 -2 -15 2 -3 7 2 10 11 7 17 1 20 -8 4z"/>
<path d="M120 1040 c-13 -8 -13 -11 -1 -22 8 -8 11 -8 7 -1 -3 6 0 13 6 16 7
2 11 7 8 10 -3 3 -12 2 -20 -3z"/>
<path d="M83 982 c12 -2 17 -10 14 -22 -3 -13 0 -16 14 -13 10 3 16 9 13 14
-3 5 0 9 5 9 6 0 11 4 11 8 0 4 -17 8 -37 8 -21 1 -30 -1 -20 -4z"/>
</g>
</svg>
